{"title":"Mahi Aaja - Singh Is Bliing - Akshay Kumar/ Amy Jackson - truHD","uid":12428785,"size":34661362,"categoryP":"video","categoryS":"music_videos","magnet":"?xt=urn:btih:c9a7faf6aa5a5857a2554782388ed161e70d1d04&amp;dn=Mahi+Aaja+-+Singh+Is+Bliing+-+Akshay+Kumar%2F+Amy+Jackson+-+truHD&amp;tr=udp%3A%2F%2Ftracker.openbittorrent.com%3A80&amp;tr=udp%3A%2F%2Fopen.demonii.com%3A1337&amp;tr=udp%3A%2F%2Ftracker.coppersurfer.tk%3A6969&amp;tr=udp%3A%2F%2Fexodus.desync.com%3A6969","seeders":0,"leechers":0,"uploader":"Aainul","files":5,"time":1442424393,"description":"Mahi Aaja - Singh Is Bliing - Akshay Kumar &amp; Amy Jackson - Full HD 1080p - Team truHD HEVC \n\n\n\nTeam truHD HEVC Presents \n\n\n\nSource: WEB-DL \n\nEncoder: truHD HEVC Encoding Team \n\nEncoded File Info: \n\nGeneral \n\nFormat : MPEG-4 \nFormat profile : Base Media \nCodec ID : iso4 \nFile size : 32.8 MiB \nDuration : 2mn 22s \nOverall bit rate : 1 925 Kbps \nEncoded date : UTC 2015-09-16 08:35:45 \nTagged date : UTC 2015-09-16 08:35:45 \n\nVideo \nID : 1 \nFormat : HEVC \nFormat/Info : High Efficiency Video Coding \nCodec ID : hvc1 \nCodec ID/Info : High Efficiency Video Coding \nDuration : 2mn 22s \nBit rate : 1 730 Kbps \nMaximum bit rate : 4 475 Kbps \nWidth : 1 920 pixels \nHeight : 1 080 pixels \nDisplay aspect ratio : 16:9 \nFrame rate mode : Constant \nFrame rate : 25.000 fps \nBits/(Pixel*Frame) : 0.033 \nStream size : 29.5 MiB (90%) \nTitle : Video \nEncoded date : UTC 2015-09-16 08:35:45 \nTagged date : UTC 2015-09-16 08:35:48 \n\nAudio \nID : 2 \nFormat : AC-3 \nFormat/Info : Audio Coding 3 \nMode extension : CM (complete main) \nFormat settings, Endianness : Big \nCodec ID : ac-3 \nDuration : 2mn 22s \nBit rate mode : Constant \nBit rate : 192 Kbps \nMaximum bit rate : 201 Kbps \nChannel(s) : 6 channels \nChannel positions : Front: L C R, Side: L R, LFE \nSampling rate : 44.1 KHz \nBit depth : 16 bits \nCompression mode : Lossy \nStream size : 3.27 MiB (10%) \nTitle : Team truHD truAudio \nEncoded date : UTC 2015-09-16 08:35:47 \nTagged date : UTC 2015-09-16 08:35:48 \n\n\nScreenShots: \n\n\n &lt;a href=&quot;\nhttp://i.imgur.com/4ZNGPlr.jpg&quot; rel=&quot;nofollow&quot; target=&quot;_NEW&quot;&gt;\nhttp://i.imgur.com/4ZNGPlr.jpg&lt;/a&gt;\n\n\nLike Us On FB And Request Accepted\n\nKickAssTorrents:         &lt;a href=&quot;\nhttps://kat.cr/user/Aainul/&quot; rel=&quot;nofollow&quot; target=&quot;_NEW&quot;&gt;\nhttps://kat.cr/user/Aainul/&lt;/a&gt;\nGloTorrents:         &lt;a href=&quot;\nhttps://glodls.to/user/Aainul&quot; rel=&quot;nofollow&quot; target=&quot;_NEW&quot;&gt;\nhttps://glodls.to/user/Aainul&lt;/a&gt;\nThePirateBay:         &lt;a href=&quot;\nhttps://thepiratebay.vg/user/Aainul/&quot; rel=&quot;nofollow&quot; target=&quot;_NEW&quot;&gt;\nhttps://thepiratebay.vg/user/Aainul/&lt;/a&gt;\n1337x Torrents:         &lt;a href=&quot;\nhttp://1337.to/user/Aainul/&quot; rel=&quot;nofollow&quot; target=&quot;_NEW&quot;&gt;\nhttp://1337.to/user/Aainul/&lt;/a&gt;\n\n\nNote: All Videos Uploaded By Me Are For Review Purpose. If You Like IT, Google IT And Buy IT - Thanks\n\n\nKing Regards\ntruHD HEVC Team\n\nShare Among Friends And Relatives","torrent":{"xt":"urn:btih:c9a7faf6aa5a5857a2554782388ed161e70d1d04","amp;dn":"Mahi+Aaja+-+Singh+Is+Bliing+-+Akshay+Kumar%2F+Amy+Jackson+-+truHD","amp;tr":["udp%3A%2F%2Ftracker.openbittorrent.com%3A80","udp%3A%2F%2Fopen.demonii.com%3A1337","udp%3A%2F%2Ftracker.coppersurfer.tk%3A6969","udp%3A%2F%2Fexodus.desync.com%3A6969"],"infoHash":"c9a7faf6aa5a5857a2554782388ed161e70d1d04","infoHashBuffer":{"type":"Buffer","data":[201,167,250,246,170,90,88,87,162,85,71,130,56,142,209,97,231,13,29,4]},"announce":[],"urlList":[]}}